<?xml version="1.0" encoding="UTF-8" standalone="no" ?>
<!DOCTYPE svg PUBLIC "-//W3C//DTD SVG 1.1//EN" "http://www.w3.org/Graphics/SVG/1.1/DTD/svg11.dtd">
<svg xmlns="http://www.w3.org/2000/svg" xmlns:xlink="http://www.w3.org/1999/xlink" version="1.1" width="1080" height="1080" viewBox="0 0 1080 1080" xml:space="preserve">
<desc>Created with Fabric.js 4.2.0</desc>
<defs>
</defs>
<rect x="0" y="0" width="100%" height="100%" fill="transparent"></rect>
<g transform="matrix(1 0 0 1 540 540)" id="7d11e0f2-147b-4af1-a06f-dc6477c1fca5"  >
</g>
<g transform="matrix(1 0 0 1 540 540)" id="f6a3bbf0-7af9-467f-82ee-9289e94367e3"  >
<rect style="stroke: none; stroke-width: 1; stroke-dasharray: none; stroke-linecap: butt; stroke-dashoffset: 0; stroke-linejoin: miter; stroke-miterlimit: 4; fill: rgb(255,255,255); fill-rule: nonzero; opacity: 1;" vector-effect="non-scaling-stroke"  x="-540" y="-540" rx="0" ry="0" width="1080" height="1080" />
</g>
<g transform="matrix(5.59 0 0 5.62 522.98 404.27)"  >
<path style="stroke: rgb(123,219,123); stroke-width: 36; stroke-dasharray: none; stroke-linecap: butt; stroke-dashoffset: 0; stroke-linejoin: miter; stroke-miterlimit: 4; fill: rgb(255,255,255); fill-rule: nonzero; opacity: 1;" vector-effect="non-scaling-stroke"  transform=" translate(-50, -50)" d="M 50 92.875 C 26.358 92.875 7.125 73.642 7.125 50 C 7.125 26.358000000000004 26.358 7.125 50 7.125 C 73.642 7.125 92.875 26.358 92.875 50 C 92.875 73.642 73.642 92.875 50 92.875 z M 50 9.125 C 27.461 9.125 9.125 27.461 9.125 50 C 9.125 72.538 27.461 90.875 50 90.875 C 72.538 90.875 90.875 72.538 90.875 50 C 90.875 27.461 72.538 9.125 50 9.125 z" stroke-linecap="round" />
</g>
<g transform="matrix(1.4 -2.91 2.02 0.97 543.9 400.92)"  >
<path style="stroke: rgb(0,0,0); stroke-width: 0; stroke-dasharray: none; stroke-linecap: butt; stroke-dashoffset: 0; stroke-linejoin: miter; stroke-miterlimit: 4; fill: rgb(123,219,123); fill-rule: nonzero; opacity: 1;" vector-effect="non-scaling-stroke"  transform=" translate(-50, -50)" d="M 94.75 50 C 94.75 56.213 89.514 61.25 83.054 61.25 L 16.946 61.25 C 10.486 61.25 5.25 56.213 5.25 50 L 5.25 50 C 5.25 43.787 10.486 38.75 16.945999999999998 38.75 L 83.053 38.75 C 89.514 38.75 94.75 43.787 94.75 50 L 94.75 50 z" stroke-linecap="round" />
</g>
<g transform="matrix(1.28 1.49 -1.7 1.46 460.14 481.28)"  >
<path style="stroke: rgb(0,0,0); stroke-width: 0; stroke-dasharray: none; stroke-linecap: butt; stroke-dashoffset: 0; stroke-linejoin: miter; stroke-miterlimit: 4; fill: rgb(123,219,123); fill-rule: nonzero; opacity: 1;" vector-effect="non-scaling-stroke"  transform=" translate(-50, -50)" d="M 94.75 50 C 94.75 56.213 89.514 61.25 83.054 61.25 L 16.946 61.25 C 10.486 61.25 5.25 56.213 5.25 50 L 5.25 50 C 5.25 43.787 10.486 38.75 16.945999999999998 38.75 L 83.053 38.75 C 89.514 38.75 94.75 43.787 94.75 50 L 94.75 50 z" stroke-linecap="round" />
</g>
<g transform="matrix(0.99 1.69 -1.93 1.13 625.23 345.64)"  >
<path style="stroke: rgb(0,0,0); stroke-width: 0; stroke-dasharray: none; stroke-linecap: butt; stroke-dashoffset: 0; stroke-linejoin: miter; stroke-miterlimit: 4; fill: rgb(123,219,123); fill-rule: nonzero; opacity: 1;" vector-effect="non-scaling-stroke"  transform=" translate(-50, -50)" d="M 94.75 50 C 94.75 56.213 89.514 61.25 83.054 61.25 L 16.946 61.25 C 10.486 61.25 5.25 56.213 5.25 50 L 5.25 50 C 5.25 43.787 10.486 38.75 16.945999999999998 38.75 L 83.053 38.75 C 89.514 38.75 94.75 43.787 94.75 50 L 94.75 50 z" stroke-linecap="round" />
</g>
<g transform="matrix(1.45 0.42 -0.32 1.11 623.67 282.99)"  >
<path style="stroke: rgb(0,0,0); stroke-width: 0; stroke-dasharray: none; stroke-linecap: butt; stroke-dashoffset: 0; stroke-linejoin: miter; stroke-miterlimit: 4; fill: rgb(255,255,255); fill-rule: nonzero; opacity: 1;" vector-effect="non-scaling-stroke"  transform=" translate(-50.5, -49.63)" d="M 47.241 73.538 L 87.35 50.376999999999995 L 54.598 17.623 L 54.598 33.28 C 18.114 31.59 10.956 52.564 14.436 81.641 C 20.303 61.312000000000005 31.583 50.328 50.721 53.012 L 47.241 73.538 z" stroke-linecap="round" />
</g>
<g transform="matrix(0.8 0.1 -0.08 0.61 618.37 307.93)"  >
<polygon style="stroke: rgb(0,0,0); stroke-width: 0; stroke-dasharray: none; stroke-linecap: butt; stroke-dashoffset: 0; stroke-linejoin: miter; stroke-miterlimit: 4; fill: rgb(123,219,123); fill-rule: nonzero; opacity: 1;" vector-effect="non-scaling-stroke"  points="-37.43,32.41 0,-32.41 37.43,32.41 " />
</g>
<g transform="matrix(-1.41 -0.64 0.48 -1.06 455.27 518.69)"  >
<path style="stroke: rgb(0,0,0); stroke-width: 0; stroke-dasharray: none; stroke-linecap: butt; stroke-dashoffset: 0; stroke-linejoin: miter; stroke-miterlimit: 4; fill: rgb(255,255,255); fill-rule: nonzero; opacity: 1;" vector-effect="non-scaling-stroke"  transform=" translate(-50.5, -49.63)" d="M 47.241 73.538 L 87.35 50.376999999999995 L 54.598 17.623 L 54.598 33.28 C 18.114 31.59 10.956 52.564 14.436 81.641 C 20.303 61.312000000000005 31.583 50.328 50.721 53.012 L 47.241 73.538 z" stroke-linecap="round" />
</g>
<g transform="matrix(0.35 0.4 -0.46 0.41 458.7 487.03)"  >
<polygon style="stroke: rgb(0,0,0); stroke-width: 0; stroke-dasharray: none; stroke-linecap: butt; stroke-dashoffset: 0; stroke-linejoin: miter; stroke-miterlimit: 4; fill: rgb(123,219,123); fill-rule: nonzero; opacity: 1;" vector-effect="non-scaling-stroke"  points="-37.43,32.41 0,-32.41 37.43,32.41 " />
</g>
<g transform="matrix(0.11 0.27 -0.31 0.13 464.22 498.87)"  >
<polygon style="stroke: rgb(0,0,0); stroke-width: 0; stroke-dasharray: none; stroke-linecap: butt; stroke-dashoffset: 0; stroke-linejoin: miter; stroke-miterlimit: 4; fill: rgb(123,219,123); fill-rule: nonzero; opacity: 1;" vector-effect="non-scaling-stroke"  points="-37.43,32.41 0,-32.41 37.43,32.41 " />
</g>
<g transform="matrix(0.85 0.41 -0.48 0.98 513.36 536.47)"  >
<polygon style="stroke: rgb(0,0,0); stroke-width: 0; stroke-dasharray: none; stroke-linecap: butt; stroke-dashoffset: 0; stroke-linejoin: miter; stroke-miterlimit: 4; fill: rgb(255,255,255); fill-rule: nonzero; opacity: 1;" vector-effect="non-scaling-stroke"  points="-37.43,32.41 0,-32.41 37.43,32.41 " />
</g>
<g transform="matrix(0.7 1.34 -1.03 0.54 639.8 312.12)"  >
<path style="stroke: rgb(0,0,0); stroke-width: 0; stroke-dasharray: none; stroke-linecap: butt; stroke-dashoffset: 0; stroke-linejoin: miter; stroke-miterlimit: 4; fill: rgb(255,255,255); fill-rule: nonzero; opacity: 1;" vector-effect="non-scaling-stroke"  transform=" translate(-50.5, -49.63)" d="M 47.241 73.538 L 87.35 50.376999999999995 L 54.598 17.623 L 54.598 33.28 C 18.114 31.59 10.956 52.564 14.436 81.641 C 20.303 61.312000000000005 31.583 50.328 50.721 53.012 L 47.241 73.538 z" stroke-linecap="round" />
</g>
<g transform="matrix(-0.56 -0.98 0.65 -0.37 629.53 350.92)"  >
<polygon style="stroke: rgb(0,0,0); stroke-width: 0; stroke-dasharray: none; stroke-linecap: butt; stroke-dashoffset: 0; stroke-linejoin: miter; stroke-miterlimit: 4; fill: rgb(123,219,123); fill-rule: nonzero; opacity: 1;" vector-effect="non-scaling-stroke"  points="-37.43,32.41 0,-32.41 37.43,32.41 " />
</g>
<g transform="matrix(-0.34 -0.58 0.39 -0.22 617.22 329.34)"  >
<polygon style="stroke: rgb(0,0,0); stroke-width: 0; stroke-dasharray: none; stroke-linecap: butt; stroke-dashoffset: 0; stroke-linejoin: miter; stroke-miterlimit: 4; fill: rgb(123,219,123); fill-rule: nonzero; opacity: 1;" vector-effect="non-scaling-stroke"  points="-37.43,32.41 0,-32.41 37.43,32.41 " />
</g>
</svg>